# xmcd
#
# Track frame offsets:
#	150
#	15920
#	31993
#	45863
#	57710
#	68702
#	82530
#	96783
#	111317
#	125050
#	137818
#	152958
#	165443
#	180630
#
# Disc length: 2564 seconds
#
# Revision: 0
# Processed by: cddbd v1.4PL0 Copyright (c) Steve Scherf et al.
# Submitted via: audiograbber 1.81.03
#
DISCID=ac0a020e
DTITLE=Various Artists (SR) - Country Highway
DYEAR=2000
DGENRE=Country
TTITLE0=Jonny Hill - Tierra Libre
TTITLE1=Linda Feller - Andre Mütter haben auch ein schönes Kind
TTITLE2=Gunter Gabriel - Der letzte Wagen ist immer ein Kombi
TTITLE3=Truck Riders - Dann traf ich dich
TTITLE4=Truck aus dem Zillertal - Back To Nature
TTITLE5=Hanna and Daana - Hey, Hey Hey Easy Rider
TTITLE6=Iris McCollins - Liebeskrank
TTITLE7=Linda Feller - Lust am Leben
TTITLE8=Jonny Hill - Alles gehabt und alles verloren
TTITLE9=Rose Country - Honky Tonk Saturday Night
TTITLE10=Mike Herman and Booze Company - Hey Trucker
TTITLE11=Joe Hodgkins Boss Band - Wenn du Freunde hast
TTITLE12=Dagmar-The Lady Of Country - Tränen wie Feuer
TTITLE13=Greyhounds - Nimm es leicht
EXTD=
EXTT0=
EXTT1=
EXTT2=
EXTT3=
EXTT4=
EXTT5=
EXTT6=
EXTT7=
EXTT8=
EXTT9=
EXTT10=
EXTT11=
EXTT12=
EXTT13=
PLAYORDER=
